# Alias OBJ Model File
# Exported from SketchUp, (c) 2000-2012 Trimble Navigation Limited
# File units = inches

mtllib SimpleHouse.mtl

g Mesh1 Model

usemtl FrontColor
v 88 0 -22
vt -88 22
vn 0 -1 -0
v 88 0 -4
vt -88 4
v 84 0 -4
vt -84 4
v 84 0 -22
vt -84 22
f 1/1/1 2/2/1 3/3/1 4/4/1 

vt 4 0
vn 1 0 -0
vt 22 0
v 88 84 -22
vt 22 84
v 88 84 -58
vt 58 84
v 88 0 -58
vt 58 0
v 88 0 -80
vt 80 0
v 88 96 -80
vt 80 96
v 88 96 -4
vt 4 96
f 2/5/2 1/6/2 5/7/2 6/8/2 7/9/2 8/10/2 9/11/2 10/12/2 

vt -88 84
vn 0 0 -1
vt -88 0
vt -84 0
v 84 84 -22
vt -84 84
f 5/13/3 1/14/3 4/15/3 11/16/3 

v 84 96 -76
vt -76 96
vn -1 0 -0
v 84 0 -76
vt -76 0
v 84 0 -58
vt -58 0
v 84 84 -58
vt -58 84
vt -22 84
vt -22 0
vt -4 0
v 84 96 -4
vt -4 96
f 12/17/4 13/18/4 14/19/4 15/20/4 11/21/4 4/22/4 3/23/4 16/24/4 

v 4 0 -76
vn 0 0 1
vt 84 0
vt 84 96
v 4 96 -76
f 17/5/5 13/25/5 12/26/5 18/12/5 

v 4 0 -4
vt -4 4
v 188 0 -4
vt -188 4
v 188 0 -29.0523
vt -188 29.0523
v 192 0 -29.0523
vt -192 29.0523
v 192 0 -0
vt -192 0
v 0 0 -0
vt 0 0
v 0 0 -192
vt 0 192
v 192 0 -192
vt -192 192
v 192 0 -65.0523
vt -192 65.0523
v 188 0 -65.0523
vt -188 65.0523
v 188 0 -188
vt -188 188
v 4 0 -188
vt -4 188
v 4 0 -80
vt -4 80
vt -88 80
vt -88 58
vt -84 58
vt -84 76
vt -4 76
v 4 0 -10
vt -4 10
f 19/27/1 3/3/1 2/2/1 20/28/1 21/29/1 22/30/1 23/31/1 24/32/1 25/33/1 26/34/1 27/35/1 28/36/1 29/37/1 30/38/1 31/39/1 8/40/1 7/41/1 14/42/1 13/43/1 17/44/1 32/45/1 

v 4 96 -4
vt -84 96
f 33/24/3 16/46/3 3/15/3 19/23/3 

v 188 96 -0
vt 188 0
vn 0 1 -0
v 188 96 -4
vt 188 4
vt 88 4
vt 84 4
vt 4 4
v 4 96 -0
f 34/47/6 35/48/6 10/49/6 16/50/6 33/51/6 36/5/6 

v 192 96 -192
vt 192 192
v 188 96 -192
vt 188 192
v 188 96 -188
vt 188 188
v 192 96 -0
vt 192 0
f 37/52/6 38/53/6 39/54/6 35/48/6 34/47/6 40/55/6 

usemtl Roofing_Metal_Standing_Seam_Red
v 192 144 -96
vt -8 -0.894427
vn 2.2684e-17 0.894427 -0.447214
vt -8 -5.36656
vt -7.83333 -5.36656
v 4 96 -192
vt -0.166667 -5.36656
v 0 96 -192
vt 4.05783e-16 -5.36656
v 0 144 -96
vt 2.02891e-16 -0.894427
f 41/56/7 37/57/7 38/58/7 42/59/7 43/60/7 44/61/7 

usemtl WoodRough0089_1_S
vt 5.33333 2.66667
vt 2.66667 4
vt 0 2.66667
f 37/62/2 41/63/2 40/64/2

usemtl Roofing_Metal_Standing_Seam_Red
vt 8 1.78885
vn 0 0.894427 0.447214
vt 8 6.26099
vt 0 6.26099
v 0 96 -0
vt 0 1.78885
vt 0.166667 1.78885
vt 7.83333 1.78885
f 40/65/8 41/66/8 44/67/8 45/68/8 36/69/8 34/70/8 

usemtl WoodRough0089_1_S
vt -5.33333 2.66667
vt -2.66667 4
f 43/71/4 45/64/4 44/72/4

usemtl FrontColor
vt 4 76
vt 84 76
vt 88 80
v 4 96 -80
vt 4 80
v 4 96 -188
vt 4 188
vt 4 192
f 45/32/6 36/5/6 33/51/6 18/73/6 12/74/6 16/50/6 10/49/6 9/75/6 46/76/6 47/77/6 42/78/6 43/33/6 

usemtl WoodRough0089_1_S
vt 5.22222 2.66667
vt 0.111111 2.66667
f 45/64/5 34/79/5 36/80/5

f 45/64/5 40/62/5 34/79/5

v 120 72 -0
vt 3.33333 2
f 45/64/5 48/81/5 40/62/5

v 120 24 -0
vt 3.33333 0.666667
f 45/64/5 49/82/5 48/81/5

f 24/32/5 49/82/5 45/64/5

v 156 24 -0
vt 4.33333 0.666667
f 49/82/5 24/32/5 50/83/5

vt 5.33333 0
f 23/84/5 50/83/5 24/32/5

f 50/83/5 23/84/5 40/62/5

vt 0.807007 0
f 22/85/2 40/64/2 23/32/2

v 192 78 -29.0523
vt 0.807007 2.16667
f 40/64/2 22/85/2 51/86/2

usemtl FrontColor
vt -192 78
vt -188 0
v 188 78 -29.0523
vt -188 78
f 51/87/3 22/31/3 21/88/3 52/89/3 

vt -29.0523 0
vt -29.0523 78
f 21/90/4 20/23/4 52/91/4

f 35/24/4 52/91/4 20/23/4

vt -188 96
f 52/91/4 35/24/4 39/92/4

f 35/28/1 10/2/1 9/40/1 46/39/1 47/38/1 39/37/1 

v 156 72 -4
vt -156 72
vt -88 96
f 35/92/3 53/93/3 10/94/3

v 156 24 -4
vt -156 24
f 35/92/3 54/95/3 53/93/3

f 20/88/3 54/95/3 35/92/3

v 120 24 -4
vt -120 24
f 54/95/3 20/88/3 55/96/3

f 2/14/3 55/96/3 20/88/3

f 55/96/3 2/14/3 10/94/3

vt 88 96
vt 88 0
f 10/97/5 16/26/5 3/25/5 2/98/5 

v 120 72 -4
vt -120 72
f 55/96/3 10/94/3 56/99/3

f 56/99/3 10/94/3 53/93/3

v 156 72 -0
vt -156 0
vt -120 0
vt -120 4
vt -156 4
f 57/100/1 48/101/1 56/102/1 53/103/1 

usemtl WoodRough0089_1_S
vt 4.33333 2
f 57/104/5 40/62/5 48/81/5

f 50/83/5 40/62/5 57/104/5

usemtl FrontColor
vt 0 24
vt 0 72
vt -4 72
vt -4 24
f 50/105/4 57/106/4 53/107/4 54/108/4 

vt 120 0
vt 156 0
vt 156 4
vt 120 4
f 49/109/6 50/110/6 54/111/6 55/112/6 

vt 4 24
vt 4 72
f 48/106/2 49/105/2 55/113/2 56/114/2 

f 31/23/3 46/24/3 9/94/3 8/14/3 

v 4 24 -120
vt 120 24
f 31/10/2 58/115/2 46/11/2

f 58/115/2 31/10/2 30/47/2

v 4 24 -168
vt 168 24
f 58/115/2 30/47/2 59/116/2

v 4 71.7169 -168
vt 168 71.7169
f 59/116/2 30/47/2 60/117/2

vt 188 96
f 47/118/2 60/117/2 30/47/2

v 4 71.7169 -120
vt 120 71.7169
f 47/118/2 61/119/2 60/117/2

f 46/11/2 61/119/2 47/118/2

f 61/119/2 46/11/2 58/115/2

v 0 24 -120
v 0 71.7169 -120
vt 0 71.7169
vt -4 71.7169
f 62/105/3 63/120/3 61/121/3 58/108/3 

usemtl WoodRough0089_1_S
vt -3.33333 0.666667
v 0 72 -60
vt -1.66667 2
vt -3.33333 1.99214
f 62/122/4 64/123/4 63/124/4

v 0 72 -24
vt -0.666667 2
f 62/122/4 65/125/4 64/123/4

f 62/122/4 24/32/4 65/125/4

vt -5.33333 0
f 24/32/4 62/122/4 25/126/4

v 0 24 -168
vt -4.66667 0.666667
f 25/126/4 62/122/4 66/127/4

usemtl FrontColor
vt 0 168
vt 0 120
vt 4 120
vt 4 168
f 66/128/6 62/129/6 58/130/6 59/131/6 

v 0 71.7169 -168
vt 4 71.7169
f 67/120/5 66/105/5 59/113/5 60/132/5 

usemtl WoodRough0089_1_S
vt -4.66667 1.99214
f 67/133/4 43/71/4 66/127/4

f 63/124/4 43/71/4 67/133/4

f 64/123/4 43/71/4 63/124/4

v 0 84 -60
vt -1.66667 2.33333
f 68/134/4 43/71/4 64/123/4

v 0 84 -24
vt -0.666667 2.33333
f 69/135/4 43/71/4 68/134/4

f 69/135/4 45/64/4 43/71/4

f 45/64/4 69/135/4 24/32/4

f 65/125/4 24/32/4 69/135/4

usemtl FrontColor
vt 0 84
v 4 84 -24
vt -4 84
v 4 72 -24
f 65/106/3 69/136/3 70/137/3 71/107/3 

vt 0 60
v 4 84 -60
vt -4 60
f 69/105/1 68/138/1 72/139/1 70/108/1 

v 4 72 -60
vt 4 84
f 68/136/5 64/106/5 73/114/5 72/140/5 

vt 4 60
f 64/138/6 65/105/6 71/113/6 73/141/6 

vt 24 72
vt 76 0
vt 60 72
f 71/142/2 17/143/2 73/144/2

vt 10 0
f 17/143/2 71/142/2 32/145/2

vt 24 84
f 70/146/2 32/145/2 71/142/2

f 33/12/2 32/145/2 70/146/2

f 32/145/2 33/12/2 19/5/2

vt 76 96
f 33/12/2 70/146/2 18/147/2

vt 60 84
f 18/147/2 70/146/2 72/148/2

f 18/147/2 72/148/2 17/143/2

f 73/144/2 17/143/2 72/148/2

f 12/43/1 16/3/1 33/27/1 18/44/1 

vt -4 168
vt -4 120
f 63/129/1 67/128/1 60/149/1 61/150/1 

usemtl WoodRough0089_1_S
f 25/126/4 66/127/4 43/71/4

v 0 24 -192
vt -5.33333 0.666667
f 25/126/4 43/71/4 74/151/4

vt 2.5925e-16 2.66667
vn 4.86094e-17 7.40149e-17 -1
v 12 24 -192
vt -0.333333 0.666667
vt 2.5925e-16 0.666667
f 43/152/9 75/153/9 74/154/9

v 12 72 -192
vt -0.333333 2
f 75/153/9 43/152/9 76/155/9

v 48 72 -192
vt -1.33333 2
f 76/155/9 43/152/9 77/156/9

v 72 72 -192
vt -2 2
f 77/156/9 43/152/9 78/157/9

v 108 72 -192
vt -3 2
f 78/157/9 43/152/9 79/158/9

v 132 72 -192
vt -3.66667 2
f 79/158/9 43/152/9 80/159/9

v 168 72 -192
vt -4.66667 2
f 80/159/9 43/152/9 81/160/9

f 37/71/9 81/160/9 43/152/9

v 168 24 -192
f 37/71/9 82/127/9 81/160/9

vt -5.33333 -3.94746e-16
f 26/161/9 82/127/9 37/71/9

f 26/161/9 74/154/9 82/127/9

vt 2.5925e-16 -3.94746e-16
f 74/154/9 26/161/9 25/162/9

f 82/127/9 74/154/9 75/153/9

v 48 24 -192
vt -1.33333 0.666667
f 82/127/9 75/153/9 83/163/9

usemtl FrontColor
vt 48 192
vt 12 192
v 12 24 -188
vt 12 188
v 48 24 -188
vt 48 188
f 83/164/6 75/165/6 84/166/6 85/167/6 

vt 192 24
vt 192 72
v 12 72 -188
vt 188 72
vt 188 24
f 75/168/2 76/169/2 86/170/2 84/171/2 

vt -12 192
vt -48 192
v 48 72 -188
vt -48 188
vt -12 188
f 76/172/1 77/173/1 87/174/1 86/175/1 

vt -192 72
vt -192 24
vt -188 24
vt -188 72
f 77/176/4 83/177/4 85/178/4 87/179/4 

usemtl WoodRough0089_1_S
v 72 24 -192
vt -2 0.666667
f 77/156/9 88/180/9 83/163/9

f 88/180/9 77/156/9 78/157/9

usemtl FrontColor
v 72 72 -188
v 72 24 -188
f 88/168/2 78/169/2 89/170/2 90/171/2 

vt -72 192
vt -108 192
v 108 72 -188
vt -108 188
vt -72 188
f 78/181/1 79/182/1 91/183/1 89/184/1 

v 108 24 -192
v 108 24 -188
f 79/176/4 92/177/4 93/178/4 91/179/4 

usemtl WoodRough0089_1_S
v 132 24 -192
vt -3.66667 0.666667
vt -3 0.666667
f 79/158/9 94/185/9 92/186/9

f 94/185/9 79/158/9 80/159/9

usemtl FrontColor
v 132 72 -188
v 132 24 -188
f 94/168/2 80/169/2 95/170/2 96/171/2 

vt -132 192
vt -168 192
v 168 72 -188
vt -168 188
vt -132 188
f 80/187/1 81/188/1 97/189/1 95/190/1 

v 168 24 -188
f 81/176/4 82/177/4 98/178/4 97/179/4 

vt 168 192
vt 132 192
vt 132 188
vt 168 188
f 82/191/6 94/192/6 96/193/6 98/194/6 

usemtl WoodRough0089_1_S
f 82/127/9 92/186/9 94/185/9

f 82/127/9 88/180/9 92/186/9

f 82/127/9 83/163/9 88/180/9

usemtl FrontColor
vt 108 192
vt 72 192
vt 72 188
vt 108 188
f 92/195/6 88/196/6 90/197/6 93/198/6 

vt 12 24
vt 108 24
vt 72 24
f 84/199/5 93/200/5 90/201/5

vt 132 24
f 84/199/5 96/202/5 93/200/5

f 84/199/5 98/116/5 96/202/5

f 84/199/5 30/5/5 98/116/5

f 30/5/5 84/199/5 47/12/5

vt 12 72
f 47/12/5 84/199/5 86/203/5

f 47/12/5 86/203/5 39/118/5

vt 48 72
f 87/204/5 39/118/5 86/203/5

vt 72 72
f 89/205/5 39/118/5 87/204/5

vt 108 72
f 91/206/5 39/118/5 89/205/5

vt 132 72
f 95/207/5 39/118/5 91/206/5

vt 168 72
f 97/208/5 39/118/5 95/207/5

f 98/116/5 39/118/5 97/208/5

f 98/116/5 29/47/5 39/118/5

f 29/47/5 98/116/5 30/5/5

v 188 24 -162.622
vt -162.622 24
f 29/88/4 99/209/4 39/92/4

v 188 24 -90.6225
vt -90.6225 24
f 29/88/4 100/210/4 99/209/4

vt -65.0523 0
f 28/211/4 100/210/4 29/88/4

v 188 78 -65.0523
vt -65.0523 78
f 100/210/4 28/211/4 101/212/4

vt 192 1.18519e-14
vn 0 1.8219e-16 1
v 192 78 -65.0523
vt 192 78
vt 188 78
vt 188 1.18519e-14
f 27/213/10 102/214/10 101/215/10 28/216/10 

usemtl WoodRough0089_1_S
vt 1.80701 0
v 192 24 -90.6225
vt 2.51729 0.666667
vt 1.80701 2.16667
f 27/217/2 103/218/2 102/219/2

f 103/218/2 27/217/2 26/84/2

v 192 24 -162.622
vt 4.51729 0.666667
f 103/218/2 26/84/2 104/220/2

v 192 72 -162.622
vt 4.51729 2
f 104/220/2 26/84/2 105/221/2

f 37/62/2 105/221/2 26/84/2

v 192 72 -90.6225
vt 2.51729 2
f 37/62/2 106/222/2 105/221/2

f 37/62/2 102/219/2 106/222/2

f 37/62/2 51/86/2 102/219/2

f 40/64/2 51/86/2 37/62/2

usemtl FrontColor
f 102/35/1 51/30/1 52/29/1 101/36/1 

f 52/91/4 39/92/4 101/212/4

v 188 72 -90.6225
vt -90.6225 72
f 101/212/4 39/92/4 107/223/4

v 188 72 -162.622
vt -162.622 72
f 107/223/4 39/92/4 108/224/4

f 108/224/4 39/92/4 99/209/4

f 104/168/5 105/169/5 108/170/5 99/171/5 

vt -192 162.622
vt -192 90.6225
vt -188 90.6225
vt -188 162.622
f 105/225/1 106/226/1 107/227/1 108/228/1 

f 106/176/3 103/177/3 100/178/3 107/179/3 

usemtl WoodRough0089_1_S
f 106/222/2 102/219/2 103/218/2

usemtl FrontColor
vt 192 90.6225
vt 192 162.622
vt 188 162.622
vt 188 90.6225
f 103/229/6 104/230/6 99/231/6 100/232/6 

f 100/210/4 101/212/4 107/223/4

f 93/200/5 95/207/5 91/206/5

f 95/207/5 93/200/5 96/202/5

vt 48 24
f 85/233/5 89/205/5 87/204/5

f 89/205/5 85/233/5 90/201/5

f 84/199/5 90/201/5 85/233/5

f 42/78/6 47/77/6 39/54/6 38/53/6 

usemtl WoodRough0089_1_S
vt -0.111111 2.66667
vt -5.22222 2.66667
f 37/71/9 42/234/9 38/235/9

f 37/71/9 43/152/9 42/234/9

usemtl FrontColor
vt 88 84
vt 84 84
f 7/98/5 6/236/5 15/237/5 14/25/5 

f 6/41/1 5/1/1 11/4/1 15/42/1 

